<mxfile host="app.diagrams.net" modified="2023-09-29T17:48:18.965Z" agent="Mozilla/5.0 (Windows NT 10.0; Win64; x64) AppleWebKit/537.36 (KHTML, like Gecko) Chrome/116.0.0.0 Safari/537.36" version="22.0.0" etag="VPGi2ucTshgWG0bAekK1" type="github">
  <diagram name="PÃ¡gina-1" id="BbsRC57OxCSDFtYF2PJ2">
    <mxGraphModel>
      <root>
        <mxCell id="0" />
        <mxCell id="1" parent="0" />
      </root>
    </mxGraphModel>
  </diagram>
</mxfile>
